# xmcd CD database file
# Copyright (C) 1993-1998 Ti Kan
# 
# Track frame offsets:
#     183
#     25783
#     51080
#     67120
#     96458
#     112343
#     146145
#     172023
#     186718
#     215083
#     231005
#     246005
#     258333
#     277120
#     299195
# 
# Disc length: 4187 seconds
# 
# Revision: 1
# Processed by: cddbd v1.4b41PL1 Copyright (c) Steve Scherf et al.
# Submitted via: DiscPlay 4.0.4
# 
DISCID=0510590f
DTITLE=Various Artist - Blue Jean Blues - Vol. 18
DYEAR=1900
DGENRE=
TTITLE0=Blue Jean Blues
TTITLE1=Since I Fell For You
TTITLE2=Mississippi Delta Blues
TTITLE3=I'd Rather Go Blind
TTITLE4=Woman With The Blues
TTITLE5=Slow Blues In C
TTITLE6=I Wonder
TTITLE7=Caress Me Baby
TTITLE8=I've Slipped Her Mind
TTITLE9=The Road's My Middle Name
TTITLE10=With You In My Mind
TTITLE11=Some Day The Sun Won't Shine For You
TTITLE12=Woman's Gone
TTITLE13=Sneakin' Around
TTITLE14=I've Been Drinking
EXTD=
EXTT0=Jeff Healey Band
EXTT1=Johnny Diesel and the Injectors
EXTT2=Rocky Hill
EXTT3=Ruby Turner
EXTT4=George Thorogood and The Destroyers
EXTT5=Ten Years After
EXTT6=Livin' Blues
EXTT7=Steve Miller Band
EXTT8=Jo-El Sonnier
EXTT9=Bonnie Raitt
EXTT10=Frankie Miller
EXTT11=Jethro Tull
EXTT12=Brainbox
EXTT13=Canned Heat
EXTT14=Jeff Beck (with Rod Stewart)
PLAYORDER=
